<svg xmlns="http://www.w3.org/2000/svg" width="756" height="122" xmlns:v="https://vecta.io/nano"><style><![CDATA[.B{fill:#f27d00}.C{stroke-linecap:round}.D{stroke:#000}.E{stroke-width:.5}.F{fill:#c5520a}]]></style><g transform="translate(378 60.779)"><g transform="matrix(.1528 0 0 .1528 -340.0898 -25.2336)" clip-path="url(#A)"><clipPath id="A"><path d="M-309.045-196.69l495.66-70.86 61.29 428.74-495.66 70.86zm0 0"/></clipPath><path d="M-247.575 232.1l186.27-464.2 308.88 393.42zm0 0" class="F"/></g><g transform="matrix(.1528 0 0 .1528 -298.5442 -25.1851)" clip-path="url(#B)"><clipPath id="B"><path d="M-188.035-266.34l495.9 69.15-59.81 428.93-495.9-69.14zm0 0"/></clipPath><path d="M-247.695 162.71l307.52-394.49 187.87 463.56zm0 0" class="F"/></g><g transform="matrix(.1528 0 0 .1528 -319.2882 10.2404)" clip-path="url(#C)"><clipPath id="C"><path d="M383.285.005l-191.71 329.5h-383.43L-383.565.005l191.71-329.5h383.43zm0 0"/></clipPath><path d="M-383.565-329.505h767.13v659.01h-767.13zm0 0" class="B"/></g><g transform="matrix(.1528 0 0 .1528 -319.2905 35.4195)" clip-path="url(#D)"><clipPath id="D"><path d="M-118.69-164.75h237.12l71.8 329.5h-380.71zm0 0"/></clipPath><path d="M-190.49-164.75H190.5v329.5h-381zm0 0" fill="#ffd7ac"/></g><g transform="matrix(.1528 0 0 .1528 -319.3208 46.6689)" clip-path="url(#E)"><clipPath id="E"><path d="M-35.83 53.855h71.8l35.91-107.7H-71.73zm0 0"/></clipPath><path d="M-71.73-53.855H71.73v107.71H-71.73zm0 0"/></g><g transform="matrix(.1528 0 0 .1528 -319.289 21.9772)" clip-path="url(#F)"><clipPath id="F"><path d="M71.67 107.71H-71.95l-71.8-215.42h287.23zm0 0"/></clipPath><path d="M-143.47-107.71h286.95v215.42h-286.96zm0 0" class="F"/></g><g transform="matrix(.1528 0 0 .1528 -214.9496 10.4425)" clip-path="url(#G)"><clipPath id="G"><path d="M-194.9-194.32h389.8v388.35h-389.8zm0 0"/></clipPath><path d="M194.88-194.32v388.64h-52.74V27.76h-257.9v-55.52h257.9v-166.56zm-337.02 0v388.64h-52.74v-388.64zm0 0" fill="#fff"/></g><g transform="matrix(.1528 0 0 .1528 -148.2635 16.7957)" clip-path="url(#H)"><clipPath id="H"><path d="M-178.46-152.825h357v305.28h-357zm0 0"/></clipPath><path d="M178-55.525q0 26.66-12.4 48.86-12.4 22.2-33.22 35.26-20.82 13.06-46.68 13.05h-202a97.7 97.7 0 0 0 32.97 39.98q21.89 15.54 49.31 15.54h172.46v55.52H-34.02q-30.06 0-56.17-11.94a145 145 0 0 1-45.88-33.03 155 155 0 0 1-30.85-48.58Q-178.01 31.655-178 .005q.01-31.65 11.08-59.13a155 155 0 0 1 30.85-48.58 145 145 0 0 1 45.88-33.04q26.1-11.93 56.17-11.94H85.7q25.85 0 46.68 13.05a96.6 96.6 0 0 1 33.22 34.98q12.4 21.93 12.4 49.13m-302.2 41.65H85.7q16.35 0 27.95-12.22 11.6-12.22 11.6-29.43 0-17.2-11.6-29.42-11.6-12.22-27.95-12.22H-34.02q-23.2 0-42.46 11.11a95.5 95.5 0 0 0-31.9 29.98 98.5 98.5 0 0 0-15.83 42.2m0 0" fill="#fff"/></g><g transform="matrix(.1528 0 0 .1528 -89.8282 16.7957)" clip-path="url(#I)"><clipPath id="I"><path d="M-187.81-152.825h376v305.28h-376zm0 0"/></clipPath><path d="M-111.81-152.685l299.04 305.37h-75.42L-1.06 37.755l-110.75 114.93h-75.42L-37.45.555l-149.78-153.24zm223.62 0h75.42L61.71-23.875l-37.98-35.53zm0 0" fill="#fff"/></g><g transform="matrix(.1528 0 0 .1528 -24.7113 10.4425)" clip-path="url(#J)"><clipPath id="J"><path d="M-191.895-194.32h384v388.35h-384zm0 0"/></clipPath><path d="M191.185-194.32v55.52h-329.63v333.12h-52.74v-388.64zm-45.36 166.56v55.51h-257.9v-55.52zm0 0" class="B"/></g><g transform="matrix(.1528 0 0 .1528 37.022 16.7957)" clip-path="url(#K)"><clipPath id="K"><path d="M-184.84-152.825h370v305.28h-370zm0 0"/></clipPath><path d="M184.59.005q0 31.64-11.07 59.13a155 155 0 0 1-30.86 48.58 145 145 0 0 1-45.88 33.03q-26.1 11.94-56.17 11.94h-81.22q-30.07 0-56.17-11.94a145 145 0 0 1-45.88-33.03 155 155 0 0 1-30.86-48.58q-11.07-27.48-11.07-59.13 0-31.65 11.07-59.13a155 155 0 0 1 30.86-48.58 145 145 0 0 1 45.88-33.04q26.1-11.93 56.17-11.94h81.22q30.06 0 56.17 11.94a145 145 0 0 1 45.88 33.04 155 155 0 0 1 30.86 48.58q11.07 27.48 11.07 59.13m-52.74 0q0-26.65-12.13-48.58a97 97 0 0 0-32.96-35.26q-20.83-13.32-46.15-13.33h-81.22q-25.32 0-45.89 13.33a100 100 0 0 0-32.96 35.26q-12.4 21.93-12.4 48.58 0 26.65 12.4 48.58a100 100 0 0 0 32.96 35.25q20.57 13.33 45.89 13.33h81.22q25.32 0 46.15-13.33a97 97 0 0 0 32.96-35.25q12.13-21.94 12.13-48.58m0 0" class="B"/></g><g transform="matrix(.1528 0 0 .1528 97.3481 16.7957)" clip-path="url(#L)"><clipPath id="L"><path d="M-187.57-152.825h374.53v305.28h-374.53zm0 0"/></clipPath><path d="M-111.81-152.685l299.04 305.37h-75.42L-1.06 37.755l-110.75 114.93h-75.42L-37.45.555l-149.78-153.24zm223.62 0h75.42L61.7-23.875l-37.97-35.53zm0 0" class="B"/></g><g transform="matrix(.0056 0 0 .0056 185.1204 10.3774)" clip-path="url(#M)"><clipPath id="M"><use href="#S"/></clipPath><path d="M4014.05 2999.97v1200.05h-8028.1v-8400.04h1200.1v7199.99zm0 0" fill="#0ef" class="C D E"/></g><g transform="matrix(.0056 0 0 .0056 232.1602 15.3779)" clip-path="url(#N)"><clipPath id="N"><path d="M-20963.396-13295.03h49719.822v24883.88h-49719.822z"/></clipPath><path d="M4050.015-1199.99v4500h-6000.03c-384.03 0-735.97-93.98-1056.01-282.05-319.94-187.96-573.96-439.93-761.95-755.92-187.99-316.1-282.04-670-282.04-1062.04s94.05-746.04 282.04-1062.03 442.01-567.97 761.95-755.93c320.04-188.07 671.98-282.05 1056.01-282.05h4200V299.94h-4200c-248 0-459.94 88.07-636.01 264-175.97 176.04-264 388.06-264 636.06s88.03 460.02 264 635.96c176.07 176.03 388 264 636.01 264h4800.04v-3299.95c0-248-88.03-460.02-264-636.06-176.07-175.93-388-264-636.01-264h-4800.04v-1199.96h4800.04c391.98 0 745.95 93.98 1062.02 281.94 315.97 188.07 567.95 440.04 755.94 756.03 187.99 316 282.04 670 282.04 1062.04zm0 0" fill="#0ef" class="C D E"/></g><g transform="matrix(.0056 0 0 .0056 285.6417 8.709)" clip-path="url(#O)"><clipPath id="O"><path d="M-30581.411-12095.025h49719.822v24883.88h-49719.822z"/></clipPath><path d="M3888 1199.945c0 456.05-84.06 882.02-251.97 1278.03-168.02 396-402.07 746.04-702.04 1050s-648.04 541.98-1043.99 714.04c-396.06 171.96-822.07 258-1278.04 258H-3888v-9000.03h1199.98v7799.96H611.96c384.04 0 734.04-96.02 1050-287.96 315.97-192.04 566.02-446.05 750.03-762.04 184.02-316 276.03-665.92 276.03-1050 0-383.99-92-733.92-276.03-1050.01-184.01-316-434.06-570-750.03-761.94q-473.94-288.07-1050-288.07h-2699.93v-1199.93H611.96c455.97 0 881.98 86.03 1278.04 257.99 395.95 171.96 744.02 409.97 1043.99 714.04 299.97 303.96 534.02 654 702.04 1050 167.91 396 251.97 821.98 251.97 1277.92zm0 0" fill="#0ef" class="C D E"/></g><g transform="matrix(.0056 0 0 .0056 332.8177 15.378)" clip-path="url(#P)"><clipPath id="P"><path d="M-39065.411-13295.035h49719.822v24883.88h-49719.822z"/></clipPath><path d="M3600 1199.995c0 392.04-94.05 745.94-282.04 1062.04-187.99 315.99-439.97 567.96-756.04 755.92-315.97 188.07-669.94 282.05-1061.92 282.05h-5100v-1200.05h5100c248.01 0 459.94-87.97 636.02-264 175.96-175.94 264-387.96 264-635.96s-88.04-460.02-264-636.06c-176.08-175.93-388.01-264-636.02-264h-3299.98c-328.1 0-630-79.91-906.03-239.95s-493.97-377.96-654.04-654c-159.97-276.03-239.96-577.95-239.96-905.97 0-336.07 79.99-640.03 239.96-911.99 160.07-272.06 378.02-488.05 654.04-648.09 276.03-159.92 577.93-239.94 906.03-239.94h4799.95v1199.94h-4799.94c-168.02 0-310.06 58-426.01 174-116.06 116-174.03 258.1-174.03 426.08s57.97 309.98 174.03 425.97c115.95 116 257.99 174 426.01 174h3299.98c391.98 0 745.95 93.98 1061.92 282.05 316.07 187.96 568.05 439.94 756.04 755.93s282.04 670 282.04 1062.03zm0 0" fill="#0ef" class="C D E"/></g><g transform="matrix(.1065 0 0 .1065 256.0769 10.398)" clip-path="url(#Q)"><clipPath id="Q"><path d="M-916.43-419.125H916.416c96.212 0 174.22 78.008 174.22 174.22v489.796c0 96.226-78.008 174.234-174.22 174.234H-916.445c-96.212 0-174.22-78.008-174.22-174.234v-489.796c0-96.212 78.008-174.22 174.22-174.22m0 0"/></clipPath><path d="M-916.425-419.125h1832.86c96.22 0 174.22 78 174.22 174.23v489.8c0 96.21-78 174.22-174.22 174.22h-1832.86c-96.23 0-174.23-78-174.23-174.23v-489.8c0-96.2 78-174.22 174.23-174.22zm0 0" stroke="#0ef" stroke-width="107.548" fill="none"/></g></g><defs ><path id="S" d="M-12503.371-12395.01h49719.822v24883.88h-49719.822z"/></defs></svg>