<svg xmlns="http://www.w3.org/2000/svg" xml:space="preserve" width="756" height="182"><g clip-path="url(#a)" transform="translate(56.859 53.31)scale(.1465)"><clipPath id="a"><path stroke-linecap="round" d="m-483.846-307.94 776.012-110.937 95.96 671.23-776.015 110.939Zm0 0"/></clipPath><path d="m-387.615 363.389 291.637-726.777 483.594 615.953Zm0 0" style="stroke:none;stroke-width:1;stroke-dasharray:none;stroke-linecap:butt;stroke-dashoffset:0;stroke-linejoin:miter;stroke-miterlimit:4;fill:#c5520a;fill-rule:nonzero;opacity:1"/></g><g clip-path="url(#b)" transform="translate(119.202 53.384)scale(.1465)"><clipPath id="b"><path stroke-linecap="round" d="m-294.393-416.998 776.391 108.262-93.644 671.559-776.391-108.262Zm0 0"/></clipPath><path d="M-387.807 254.732 93.662-362.885l294.145 725.77Zm0 0" style="stroke:none;stroke-width:1;stroke-dasharray:none;stroke-linecap:butt;stroke-dashoffset:0;stroke-linejoin:miter;stroke-miterlimit:4;fill:#c5520a;fill-rule:nonzero;opacity:1"/></g><g clip-path="url(#c)" transform="translate(88.078 106.547)scale(.1465)"><clipPath id="c"><path stroke-linecap="round" d="M600.083 0 299.93 515.883H-300.37L-600.518 0l300.148-515.883h600.3Zm0 0"/></clipPath><path d="M-600.52-515.883H600.519V515.883H-600.52Zm0 0" style="stroke:none;stroke-width:1;stroke-dasharray:none;stroke-linecap:butt;stroke-dashoffset:0;stroke-linejoin:miter;stroke-miterlimit:4;fill:#f27d00;fill-rule:nonzero;opacity:1"/></g><g clip-path="url(#d)" transform="translate(88.068 144.323)scale(.1465)"><clipPath id="d"><path stroke-linecap="round" d="M-185.822-257.942H185.42l112.422 515.883h-596.086Zm0 0"/></clipPath><path d="M-298.244-257.941h596.488v515.883h-596.488Zm0 0" style="stroke:none;stroke-width:1;stroke-dasharray:none;stroke-linecap:butt;stroke-dashoffset:0;stroke-linejoin:miter;stroke-miterlimit:4;fill:#ffd7ac;fill-rule:nonzero;opacity:1"/></g><g clip-path="url(#e)" transform="translate(88.017 161.199)scale(.1465)"><clipPath id="e"><path stroke-linecap="round" d="M-56.099 84.317H56.323l56.211-168.633h-224.843Zm0 0"/></clipPath><path d="M-112.311-84.316H112.31V84.316h-224.621Zm0 0" style="stroke:none;stroke-width:1;stroke-dasharray:none;stroke-linecap:butt;stroke-dashoffset:0;stroke-linejoin:miter;stroke-miterlimit:4;fill:#000;fill-rule:nonzero;opacity:1"/></g><g clip-path="url(#f)" transform="translate(88.068 124.15)scale(.1465)"><clipPath id="f"><path stroke-linecap="round" d="M112.202 168.631h-224.844L-225.06-168.631h449.684Zm0 0"/></clipPath><path d="M-224.623-168.631h449.246v337.262h-449.246Zm0 0" style="stroke:none;stroke-width:1;stroke-dasharray:none;stroke-linecap:butt;stroke-dashoffset:0;stroke-linejoin:miter;stroke-miterlimit:4;fill:#c5520a;fill-rule:nonzero;opacity:1"/></g><g clip-path="url(#g)" transform="translate(244.551 106.767)scale(.1465)"><clipPath id="g"><path stroke-linecap="round" d="M-305.004-303.865h610.852V303.4h-610.852Zm0 0"/></clipPath><path d="M305-303.865v607.73h-82.543V43.408h-403.641v-86.816h403.641v-260.457Zm-527.457 0v607.73H-305v-607.73Zm0 0" style="stroke:none;stroke-width:1;stroke-dasharray:none;stroke-linecap:butt;stroke-dashoffset:0;stroke-linejoin:miter;stroke-miterlimit:4;fill:#fff;fill-rule:nonzero;opacity:1"/></g><g clip-path="url(#h)" transform="translate(344.583 116.288)scale(.1465)"><clipPath id="h"><path stroke-linecap="round" d="M-279.074-239.351h558v477.738h-558Zm0 0"/></clipPath><path d="M278.586-86.816q0 41.67-19.398 76.398t-52.004 55.129q-32.605 20.403-73.051 20.402h-316.141q17.331 38.203 51.59 62.512 34.258 24.31 77.176 24.309h269.918v86.816H-53.242c-31.363 0-60.668-6.223-87.906-18.664s-51.18-29.664-71.812-51.656-36.734-47.317-48.289-75.969S-278.586 32.992-278.586 0q-.001-49.488 17.336-92.461c11.559-28.649 27.652-53.973 48.289-75.965s44.57-39.215 71.813-51.66q40.863-18.666 87.906-18.664h187.375q40.448 0 73.051 20.402c21.735 13.601 39.074 31.832 52.004 54.695q19.397 34.293 19.398 76.836Zm-472.977 65.113h328.523c17.059 0 31.645-6.367 43.75-19.101q18.159-19.1 18.16-46.012-.001-26.913-18.16-46.016c-12.105-12.735-26.691-19.102-43.75-19.102H-53.242q-36.316 0-66.445 17.367-30.13 17.366-49.941 46.879c-13.207 19.676-21.461 41.676-24.762 65.984Zm0 0" style="stroke:none;stroke-width:1;stroke-dasharray:none;stroke-linecap:butt;stroke-dashoffset:0;stroke-linejoin:miter;stroke-miterlimit:4;fill:#fff;fill-rule:nonzero;opacity:1"/></g><g clip-path="url(#i)" transform="translate(432.237 116.288)scale(.1465)"><clipPath id="i"><path stroke-linecap="round" d="M-293.484-239.351h587v477.738h-587Zm0 0"/></clipPath><path d="m-174.992-238.75 468.023 477.5H174.992L-1.648 59.035-174.992 238.75h-118.039L-58.605.867-293.031-238.75Zm349.984 0h118.039L96.578-37.332 37.145-92.895Zm0 0" style="stroke:none;stroke-width:1;stroke-dasharray:none;stroke-linecap:butt;stroke-dashoffset:0;stroke-linejoin:miter;stroke-miterlimit:4;fill:#fff;fill-rule:nonzero;opacity:1"/></g><g clip-path="url(#j)" transform="translate(529.918 106.767)scale(.1465)"><clipPath id="j"><path stroke-linecap="round" d="M-299.35-303.865h599V303.4h-599Zm0 0"/></clipPath><path d="M299.221-303.865v86.82h-515.898v520.91h-82.543v-607.73ZM228.232-43.408v86.816h-403.637v-86.816Zm0 0" style="stroke:none;stroke-width:1;stroke-dasharray:none;stroke-linecap:butt;stroke-dashoffset:0;stroke-linejoin:miter;stroke-miterlimit:4;fill:#f27d00;fill-rule:nonzero;opacity:1"/></g><g clip-path="url(#k)" transform="translate(622.522 116.288)scale(.1465)"><clipPath id="k"><path stroke-linecap="round" d="M-289.559-239.351h579v477.738h-579Zm0 0"/></clipPath><path d="M288.902 0q0 49.489-17.332 92.461-17.333 42.974-48.289 75.969c-20.637 21.996-44.574 39.211-71.812 51.656q-40.858 18.666-87.91 18.664H-63.559q-47.052-.001-87.91-18.664c-27.238-12.441-51.176-29.664-71.812-51.656q-30.952-32.99-48.289-75.969C-283.129 63.809-288.902 32.992-288.902 0q0-49.488 17.332-92.461 17.333-42.975 48.289-75.965c20.637-21.992 44.574-39.215 71.812-51.66q40.858-18.666 87.91-18.664H63.559q47.049.001 87.91 18.664c27.242 12.441 51.176 29.664 71.813 51.66q30.954 32.993 48.289 75.965C283.129-63.812 288.902-32.992 288.902 0m-82.543 0q0-41.671-18.984-75.965c-12.656-22.863-29.856-41.238-51.59-55.129q-32.603-20.838-72.227-20.84H-63.559q-39.621.002-71.812 20.84c-21.46 13.891-38.66 32.266-51.59 55.129Q-206.357-41.671-206.359 0q0 41.673 19.398 75.965c12.933 22.86 30.129 41.242 51.59 55.133q32.191 20.836 71.813 20.836H63.559q39.62 0 72.227-20.836 32.607-20.838 51.59-55.133Q206.359 41.671 206.359 0m0 0" style="stroke:none;stroke-width:1;stroke-dasharray:none;stroke-linecap:butt;stroke-dashoffset:0;stroke-linejoin:miter;stroke-miterlimit:4;fill:#f27d00;fill-rule:nonzero;opacity:1"/></g><g clip-path="url(#l)" transform="translate(713.013 116.288)scale(.1465)"><clipPath id="l"><path stroke-linecap="round" d="M-293.344-239.351H292.59v477.738h-585.934Zm0 0"/></clipPath><path d="m-174.992-238.75 468.023 477.5H174.992L-1.652 59.035l-173.34 179.715h-118.039L-58.605.867-293.031-238.75Zm349.984 0h118.039L96.578-37.332 37.145-92.895Zm0 0" style="stroke:none;stroke-width:1;stroke-dasharray:none;stroke-linecap:butt;stroke-dashoffset:0;stroke-linejoin:miter;stroke-miterlimit:4;fill:#f27d00;fill-rule:nonzero;opacity:1"/></g></svg>