<svg xmlns="http://www.w3.org/2000/svg" width="900" height="144.71" viewBox="0 0 4994 803" xmlns:v="https://vecta.io/nano"><style><![CDATA[.B{clip-path:url(#undefined)}.C{fill:#f27d00}.D{stroke-linecap:round}.E{stroke:#000}.F{stroke-width:.5}.G{fill:#c5520a}]]></style><g clip-path="url(#A)" transform="matrix(1.0094 0 0 1.0094 250.43 234.8)"><clipPath id="A"><path d="m83.23 934.12 495.66-70.86L640.18 1292l-495.66 70.86Zm0 0" transform="translate(-392.27 -1130.8)" class="B"/></clipPath><path d="M-247.57 232.11l186.27-464.2 308.88 393.42zm0 0" class="G"/></g><g clip-path="url(#B)" transform="matrix(1.0094 0 0 1.0094 524.86 235.13)"><clipPath id="B"><path d="m476.09 864.79 495.9 69.15-59.81 428.93-495.9-69.14Zm0 0" transform="translate(-664.13 -1131.13)" class="B"/></clipPath><path d="M-247.7 162.71L59.82-231.78l187.87 463.56zm0 0" class="G"/></g><g clip-path="url(#C)" transform="matrix(1.0094 0 0 1.0094 387.83 469.13)"><clipPath id="C"><path d="m911.67 1362.94-191.71 329.5H336.53l-191.71-329.5 191.71-329.5h383.43Zm0 0" transform="translate(-528.38 -1362.94)" class="B"/></clipPath><path d="M-383.56-329.51h767.13V329.5h-767.13zm0 0" class="C"/></g><g clip-path="url(#D)" transform="matrix(1.0094 0 0 1.0094 387.82 635.44)"><clipPath id="D"><path d="M409.68 1362.94H646.8l71.8 329.5H337.89Zm0 0" transform="translate(-528.37 -1527.69)" class="B"/></clipPath><path d="M-190.49-164.75H190.5v329.5h-381zm0 0" fill="#ffd7ac"/></g><g clip-path="url(#E)" transform="matrix(1.0094 0 0 1.0094 387.62 709.75)"><clipPath id="E"><path d="M492.34 1655.15h71.8l35.91-107.7H456.44Zm0 0" transform="translate(-528.17 -1601.3)" class="B"/></clipPath><path d="M-71.73-53.86H71.73V53.85H-71.73zm0 0"/></g><g clip-path="url(#F)" transform="matrix(1.0094 0 0 1.0094 387.83 546.65)"><clipPath id="F"><path d="M600.05 1547.44H456.43l-71.8-215.42h287.23Zm0 0" transform="translate(-528.38 -1439.73)" class="B"/></clipPath><path d="M-143.47-107.71h286.95v215.42h-286.96zm0 0" class="G"/></g><g clip-path="url(#G)" transform="matrix(1.0094 0 0 1.0094 1077.02 470.46)"><clipPath id="G"><path d="M-194.9-194.32H194.9v388.35H-194.9Zm0 0"/></clipPath><path d="M194.88-194.32v388.64h-52.74V27.76h-257.9v-55.52h257.9v-166.56zm-337.02 0v388.64h-52.74v-388.64zm0 0"/></g><g clip-path="url(#H)" transform="matrix(1.0094 0 0 1.0094 1517.5 512.43)"><clipPath id="H"><path d="M-178.46-152.83h357v305.28h-357Zm0 0"/></clipPath><path d="M178-55.53q0 26.66-12.4 48.86-12.4 22.2-33.22 35.26-20.82 13.06-46.68 13.05h-202a97.7 97.7 0 0 0 32.97 39.98q21.89 15.54 49.31 15.54h172.46v55.52H-34.02q-30.06 0-56.17-11.94a145 145 0 0 1-45.88-33.03 155 155 0 0 1-30.85-48.58Q-178.01 31.65-178 0q.01-31.65 11.08-59.13a155 155 0 0 1 30.85-48.58 145 145 0 0 1 45.88-33.04q26.1-11.93 56.17-11.94H85.7q25.85 0 46.68 13.05a96.6 96.6 0 0 1 33.22 34.98Q178-82.73 178-55.53m-302.2 41.65H85.7q16.35 0 27.95-12.22 11.6-12.22 11.6-29.43 0-17.2-11.6-29.42-11.6-12.22-27.95-12.22H-34.02q-23.2 0-42.46 11.11a95.5 95.5 0 0 0-31.9 29.98 98.5 98.5 0 0 0-15.83 42.2m0 0"/></g><g clip-path="url(#I)" transform="matrix(1.0094 0 0 1.0094 1903.47 512.43)"><clipPath id="I"><path d="M-187.8-152.83h376v305.28h-376Zm0 0"/></clipPath><path d="M-111.8-152.69l299.04 305.37h-75.42L-1.05 37.75-111.8 152.68h-75.42L-37.44.55-187.22-152.69zm223.62 0h75.42L61.72-23.88 23.74-59.41zm0 0"/></g><g clip-path="url(#J)" transform="matrix(1.0094 0 0 1.0094 2333.6 470.46)"><clipPath id="J"><path d="M-191.9-194.32h384v388.35h-384Zm0 0"/></clipPath><path d="M191.18-194.32v55.52h-329.63v333.12h-52.74v-388.64zM145.82-27.76v55.51h-257.9v-55.52zm0 0" class="C"/></g><g clip-path="url(#K)" transform="matrix(1.0094 0 0 1.0094 2741.36 512.43)"><clipPath id="K"><path d="M-184.84-152.83h370v305.28h-370Zm0 0"/></clipPath><path d="M184.59 0q0 31.64-11.07 59.13a155 155 0 0 1-30.86 48.58 145 145 0 0 1-45.88 33.03q-26.1 11.94-56.17 11.94h-81.22q-30.07 0-56.17-11.94a145 145 0 0 1-45.88-33.03 155 155 0 0 1-30.86-48.58Q-184.59 31.65-184.59 0q0-31.65 11.07-59.13a155 155 0 0 1 30.86-48.58 145 145 0 0 1 45.88-33.04q26.1-11.93 56.17-11.94h81.22q30.06 0 56.17 11.94a145 145 0 0 1 45.88 33.04 155 155 0 0 1 30.86 48.58Q184.59-31.65 184.59 0m-52.74 0q0-26.65-12.13-48.58a97 97 0 0 0-32.96-35.26Q65.93-97.16 40.61-97.17h-81.22q-25.32 0-45.89 13.33a100 100 0 0 0-32.96 35.26q-12.4 21.93-12.4 48.58 0 26.65 12.4 48.58A100 100 0 0 0-86.5 83.83q20.57 13.33 45.89 13.33h81.22q25.32 0 46.15-13.33a97 97 0 0 0 32.96-35.25Q131.85 26.64 131.85 0m0 0" class="C"/></g><g clip-path="url(#L)" transform="matrix(1.0094 0 0 1.0094 3139.83 512.43)"><clipPath id="L"><path d="M-187.57-152.83h374.53v305.28h-374.53Zm0 0"/></clipPath><path d="M-111.81-152.69l299.04 305.37h-75.42L-1.06 37.75-111.81 152.68h-75.42L-37.45.55-187.23-152.69zm223.62 0h75.42L61.7-23.88 23.73-59.41zm0 0" class="C"/></g><g clip-path="url(#M)" transform="matrix(.0367 0 0 .0367 3719.59 470.03)"><clipPath id="M"><use href="#S"/></clipPath><path d="M4014.04 2999.97v1200.05h-8028.1v-8400.04h1200.1v7199.99zm0 0" fill="#0ef" class="D E F"/></g><g clip-path="url(#N)" transform="matrix(.0367 0 0 .0367 4030.3 503.06)"><clipPath id="N"><path d="M-20963.391-13295.03h49719.822v24883.88h-49719.822z"/></clipPath><path d="M4050.02-1199.99v4500h-6000.03c-384.03 0-735.97-93.98-1056.01-282.05-319.94-187.96-573.96-439.93-761.95-755.92-187.99-316.1-282.04-670-282.04-1062.04s94.05-746.04 282.04-1062.03 442.01-567.97 761.95-755.93c320.04-188.07 671.98-282.05 1056.01-282.05h4200V299.94h-4200c-248 0-459.94 88.07-636.01 264-175.97 176.04-264 388.06-264 636.06s88.03 460.02 264 635.96c176.07 176.03 388 264 636.01 264h4800.04v-3299.95c0-248-88.03-460.02-264-636.06-176.07-175.93-388-264-636.01-264h-4800.04v-1199.96h4800.04c391.98 0 745.95 93.98 1062.02 281.94 315.97 188.07 567.95 440.04 755.94 756.03 187.99 316 282.04 670 282.04 1062.04zm0 0" fill="#0ef" class="D E F"/></g><g clip-path="url(#O)" transform="matrix(.0367 0 0 .0367 4383.56 459.01)"><clipPath id="O"><path d="M-30581.411-12095.03h49719.822v24883.88h-49719.822z"/></clipPath><path d="M3888 1199.94c0 456.05-84.06 882.02-251.97 1278.03-168.02 396-402.07 746.04-702.04 1050S2285.95 4069.95 1890 4242.01c-396.06 171.96-822.07 258-1278.04 258H-3888v-9000.03h1199.98v7799.96H611.96c384.04 0 734.04-96.02 1050-287.96 315.97-192.04 566.02-446.05 750.03-762.04 184.02-316 276.03-665.92 276.03-1050 0-383.99-92-733.92-276.03-1050.01-184.01-316-434.06-570-750.03-761.94q-473.94-288.07-1050-288.07h-2699.93v-1199.93H611.96c455.97 0 881.98 86.03 1278.04 257.99 395.95 171.96 744.02 409.97 1043.99 714.04 299.97 303.96 534.02 654 702.04 1050C3803.94 318.02 3888 744 3888 1199.94zm0 0" fill="#0ef" class="D E F"/></g><g clip-path="url(#P)" transform="matrix(.0367 0 0 .0367 4695.17 503.06)"><clipPath id="P"><path d="M-39065.411-13295.03h49719.822v24883.88h-49719.822z"/></clipPath><path d="M3600 1200c0 392.04-94.05 745.94-282.04 1062.04-187.99 315.99-439.97 567.96-756.04 755.92-315.97 188.07-669.94 282.05-1061.92 282.05h-5100V2099.96h5100c248.01 0 459.94-87.97 636.02-264 175.96-175.94 264-387.96 264-635.96s-88.04-460.02-264-636.06c-176.08-175.93-388.01-264-636.02-264h-3299.98c-328.1 0-630-79.91-906.03-239.95s-493.97-377.96-654.04-654c-159.97-276.03-239.96-577.95-239.96-905.97 0-336.07 79.99-640.03 239.96-911.99 160.07-272.06 378.02-488.05 654.04-648.09 276.03-159.92 577.93-239.94 906.03-239.94h4799.95v1199.94h-4799.94c-168.02 0-310.06 58-426.01 174-116.06 116-174.03 258.1-174.03 426.08s57.97 309.98 174.03 425.97c115.95 116 257.99 174 426.01 174h3299.98c391.98 0 745.95 93.98 1061.92 282.05C2878-430 3129.98-178.02 3317.97 137.97s282.04 670 282.04 1062.03zm0 0" fill="#0ef" class="D E F"/></g><g clip-path="url(#Q)" transform="matrix(.7037 0 0 .7037 4188.28 470.17)"><clipPath id="Q"><path d="M280.31 158.78H1558c67.07 0 121.45 54.38 121.45 121.45v341.44c0 67.08-54.38 121.46-121.45 121.46H280.3c-67.07 0-121.45-54.38-121.45-121.46V280.23c0-67.07 54.38-121.45 121.45-121.45m0 0" transform="matrix(1.4345 0 0 1.4345 -1318.54 -646.9)" class="B"/></clipPath><path d="M-916.43-419.13H916.43c96.22 0 174.22 78 174.22 174.23v489.8c0 96.21-78 174.22-174.22 174.22H-916.43c-96.23 0-174.23-78-174.23-174.23v-489.8c0-96.2 78-174.22 174.23-174.22zm0 0" stroke="#0ef" stroke-width="107.548" fill="none"/></g><defs ><path id="S" d="M-12503.381-12395.01h49719.822v24883.88h-49719.822z"/></defs></svg>