<svg xmlns="http://www.w3.org/2000/svg" width="900" height="217.26" viewBox="0 0 5000 1207" xmlns:v="https://vecta.io/nano"><style><![CDATA[.B{clip-path:url(#undefined)}.C{fill:#f27d00}.D{fill:#c5520a}]]></style><g transform="matrix(.7276 0 0 .7276 2503.6543 603.2902)"><g transform="matrix(1.3333 0 0 1.3333 -2923.3307 -343.9479)" clip-path="url(#A)"><clipPath id="A"><path transform="translate(-410.764 -1111.373)" d="M-73.082 803.434L702.93 692.496l95.961 671.231-776.016 110.938zm0 0" class="B"/></clipPath><path d="M-387.615 363.389l291.637-726.777 483.594 615.953zm0 0" class="D"/></g><g transform="matrix(1.3333 0 0 1.3333 -2355.8411 -343.2708)" clip-path="url(#B)"><clipPath id="B"><path transform="translate(-836.381 -1111.881)" d="M541.988 694.883l776.391 108.262-93.644 671.559-776.391-108.262zm0 0" class="B"/></clipPath><path d="M-387.807 254.732L93.662-362.885l294.145 725.77zm0 0" class="D"/></g><g transform="matrix(1.3333 0 0 1.3333 -2639.2031 140.6224)" clip-path="url(#C)"><clipPath id="C"><path transform="translate(-623.859 -1474.801)" d="M1223.941 1474.801l-300.152 515.883H323.488L23.34 1474.801l300.148-515.883h600.301zm0 0" class="B"/></clipPath><path d="M-600.52-515.883H600.519V515.883H-600.52zm0 0" class="C"/></g><g transform="matrix(1.3333 0 0 1.3333 -2639.2266 484.5443)" clip-path="url(#D)"><clipPath id="D"><path transform="translate(-623.842 -1732.742)" d="M438.02 1474.801h371.242l112.422 515.883H325.598zm0 0" class="B"/></clipPath><path d="M-298.244-257.941h596.488v515.883h-596.488zm0 0" fill="#ffd7ac"/></g><g transform="matrix(1.3333 0 0 1.3333 -2639.6432 638.2005)" clip-path="url(#E)"><clipPath id="E"><path transform="translate(-623.529 -1847.984)" d="M567.43 1932.301h112.422l56.211-168.633H511.219zm0 0" class="B"/></clipPath><path d="M-112.311-84.316H112.31V84.316h-224.621zm0 0"/></g><g transform="matrix(1.3333 0 0 1.3333 -2639.2057 300.9271)" clip-path="url(#F)"><clipPath id="F"><path transform="translate(-623.857 -1595.029)" d="M736.059 1763.66H511.215l-112.418-337.262h449.684zm0 0" class="B"/></clipPath><path d="M-224.623-168.631h449.246v337.262h-449.246zm0 0" class="D"/></g><g transform="matrix(1.3333 0 0 1.3333 -1214.8125 142.6719)" clip-path="url(#G)"><clipPath id="G"><path d="M-305.004-303.865h610.852V303.4h-610.852zm0 0"/></clipPath><path d="M305-303.865v607.73h-82.543V43.408h-403.641v-86.816h403.641v-260.457zm-527.457 0v607.73H-305v-607.73zm0 0"/></g><g transform="matrix(1.3333 0 0 1.3333 -304.25 229.3568)" clip-path="url(#H)"><clipPath id="H"><path d="M-279.074-239.351h558v477.738h-558zm0 0"/></clipPath><path d="M278.586-86.816c0 27.781-6.465 53.246-19.398 76.398s-30.266 41.527-52.004 55.129-46.086 20.402-73.051 20.402h-316.141c11.555 25.469 28.75 46.305 51.59 62.512s48.563 24.309 77.176 24.309h269.918v86.816H-53.242c-31.363 0-60.668-6.223-87.906-18.664s-51.18-29.664-71.812-51.656-36.734-47.317-48.289-75.969S-278.586 32.992-278.586 0s5.777-63.812 17.336-92.461 27.652-53.973 48.289-75.965 44.57-39.215 71.813-51.66 56.543-18.664 87.906-18.664h187.375c26.965 0 51.316 6.801 73.051 20.402s39.074 31.832 52.004 54.695 19.398 48.473 19.398 76.836zm-472.977 65.113h328.523c17.059 0 31.645-6.367 43.75-19.101s18.16-28.07 18.16-46.012-6.055-33.281-18.16-46.016-26.691-19.102-43.75-19.102H-53.242c-24.211 0-46.359 5.789-66.445 17.367s-36.734 27.203-49.941 46.879-21.461 41.676-24.762 65.984zm0 0"/></g><g transform="matrix(1.3333 0 0 1.3333 493.6302 229.3568)" clip-path="url(#I)"><clipPath id="I"><path d="M-293.484-239.351h587v477.738h-587zm0 0"/></clipPath><path d="M-174.992-238.75l468.023 477.5H174.992L-1.648 59.035-174.992 238.75h-118.039L-58.605.867-293.031-238.75zm349.984 0h118.039L96.578-37.332 37.145-92.895zm0 0"/></g><g transform="matrix(1.3333 0 0 1.3333 1382.7839 142.6719)" clip-path="url(#J)"><clipPath id="J"><path d="M-299.35-303.865h599V303.4h-599zm0 0"/></clipPath><path d="M299.221-303.865v86.82h-515.898v520.91h-82.543v-607.73zM228.232-43.408v86.816h-403.637v-86.816zm0 0" class="C"/></g><g transform="matrix(1.3333 0 0 1.3333 2225.7292 229.3568)" clip-path="url(#K)"><clipPath id="K"><path d="M-289.559-239.351h579v477.738h-579zm0 0"/></clipPath><path d="M288.902 0c0 32.992-5.777 63.813-17.332 92.461s-27.652 53.973-48.289 75.969-44.574 39.211-71.812 51.656-56.543 18.664-87.91 18.664H-63.559c-31.367 0-60.672-6.223-87.91-18.664s-51.176-29.664-71.812-51.656-36.73-47.317-48.289-75.969S-288.902 32.992-288.902 0s5.777-63.812 17.332-92.461 27.652-53.973 48.289-75.965 44.574-39.215 71.812-51.66 56.543-18.664 87.91-18.664H63.559c31.367 0 60.668 6.223 87.91 18.664s51.176 29.664 71.813 51.66 36.731 47.316 48.289 75.965S288.902-32.992 288.902 0zm-82.543 0c0-27.781-6.328-53.102-18.984-75.965s-29.856-41.238-51.59-55.129-45.812-20.84-72.227-20.84H-63.559c-26.414 0-50.352 6.949-71.812 20.84s-38.66 32.266-51.59 55.129S-206.359-27.781-206.359 0s6.465 53.105 19.398 75.965 30.129 41.242 51.59 55.133 45.398 20.836 71.813 20.836H63.559c26.414 0 50.488-6.945 72.227-20.836s38.934-32.27 51.59-55.133S206.359 27.781 206.359 0zm0 0" class="C"/></g><g transform="matrix(1.3333 0 0 1.3333 3049.4427 229.3568)" clip-path="url(#L)"><clipPath id="L"><path d="M-293.344-239.351H292.59v477.738h-585.934zm0 0"/></clipPath><path d="M-174.992-238.75l468.023 477.5H174.992L-1.652 59.035-174.992 238.75h-118.039L-58.605.867-293.031-238.75zm349.984 0h118.039L96.578-37.332 37.145-92.895zm0 0" class="C"/></g></g></svg>