<svg xmlns="http://www.w3.org/2000/svg" width="2000" height="2000" viewBox="0 0 1500 1500"><defs><clipPath id="b"><path d="M26 0h937v878H26Zm0 0"/></clipPath><clipPath id="c"><path d="M-89.398 67.3 847.047-66.573l115.797 810L26.398 877.3Zm0 0"/></clipPath><clipPath id="d"><path d="M-89.398 67.3 847.047-66.573l115.797 810L26.398 877.3Zm0 0"/></clipPath><clipPath id="e"><path d="M540 1h937v877H540Zm0 0"/></clipPath><clipPath id="f"><path d="M652.832-63.691 1589.73 66.953l-113.003 810.395-936.899-130.645Zm0 0"/></clipPath><clipPath id="g"><path d="M652.832-63.691 1589.73 66.953l-113.003 810.395-936.899-130.645Zm0 0"/></clipPath><clipPath id="h"><path d="M26.96 254.93H1476V1500H26.96Zm0 0"/></clipPath><clipPath id="i"><path d="M1475.77 877.465 1113.566 1500H389.16L26.96 877.465l362.2-622.535h724.406Zm0 0"/></clipPath><clipPath id="k"><path d="M.96.93H1450V1246H.96Zm0 0"/></clipPath><clipPath id="l"><path d="M1449.77 623.465 1087.566 1246H363.16L.96 623.465 363.16.93h724.406Zm0 0"/></clipPath><clipPath id="j"><path d="M0 0h1450v1246H0z"/></clipPath><clipPath id="m"><path d="M391.707 877.465h719.805V1500H391.707Zm0 0"/></clipPath><clipPath id="n"><path d="M527.367 877.465H975.36L1111.023 1500H391.707Zm0 0"/></clipPath><clipPath id="p"><path d="M.707.465h719.492V623H.707Zm0 0"/></clipPath><clipPath id="q"><path d="M136.367.465H584.36L720.023 623H.707Zm0 0"/></clipPath><clipPath id="o"><path d="M0 0h721v623H0z"/></clipPath><clipPath id="r"><path d="M615.7 1226.05h271.859v203.497h-271.86Zm0 0"/></clipPath><clipPath id="s"><path d="M683.531 1429.547h135.664l67.832-203.496H615.7Zm0 0"/></clipPath><clipPath id="u"><path d="M.7.05H272v203.497H.7Zm0 0"/></clipPath><clipPath id="v"><path d="M68.531 203.547h135.664L272.027.05H.7Zm0 0"/></clipPath><clipPath id="t"><path d="M0 0h273v204H0z"/></clipPath><clipPath id="w"><path d="M480 819.055h542.688v406.988H480Zm0 0"/></clipPath><clipPath id="x"><path d="M887.023 1226.043H615.695l-135.66-406.988h542.653Zm0 0"/></clipPath><clipPath id="z"><path d="M0 .055h542.688v406.988H0Zm0 0"/></clipPath><clipPath id="A"><path d="M407.023 407.043H135.695L.035.055h542.653Zm0 0"/></clipPath><clipPath id="y"><path d="M0 0h543v408H0z"/></clipPath><clipPath id="a"><path d="M0 0h1500v1500H0z"/></clipPath></defs><g clip-path="url(#a)"><g clip-path="url(#b)"><g clip-path="url(#c)"><g clip-path="url(#d)"><path fill="#c5520a" d="M26.727 877.418 378.657.387l583.57 743.293Zm0 0"/></g></g></g><g clip-path="url(#e)"><g clip-path="url(#f)"><g clip-path="url(#g)"><path fill="#c5520a" d="m540.105 746.91 581.008-745.3 354.953 875.812Zm0 0"/></g></g></g><g clip-path="url(#h)"><g clip-path="url(#i)"><g clip-path="url(#j)" transform="translate(26 254)"><g clip-path="url(#k)"><g clip-path="url(#l)"><path fill="#f27d00" d="M.96.93H1450.3V1246H.96Zm0 0"/></g></g></g></g></g><g clip-path="url(#m)"><g clip-path="url(#n)"><g clip-path="url(#o)" transform="translate(391 877)"><g clip-path="url(#p)"><g clip-path="url(#q)"><path fill="#ffd7ac" d="M.707.465h719.805V623H.707Zm0 0"/></g></g></g></g></g><g clip-path="url(#r)"><g clip-path="url(#s)"><g clip-path="url(#t)" transform="translate(615 1226)"><g clip-path="url(#u)"><g clip-path="url(#v)"><path d="M.7.05h271.062v203.497H.699Zm0 0"/></g></g></g></g></g><g clip-path="url(#w)"><g clip-path="url(#x)"><g clip-path="url(#y)" transform="translate(480 819)"><g clip-path="url(#z)"><g clip-path="url(#A)"><path fill="#c5520a" d="M542.688 407.043H.563V.055h542.125Zm0 0"/></g></g></g></g></g></g></svg>